# xmcd CD database file
#
# Track frame offsets:
#	187
#	23449
#	32787
#
# Disc length: 749 seconds
#
# Revision: 0
# Processed by: cddbd v1.5PL3 Copyright (c) Steve Scherf et al.
# Submitted via: CDex 1.50beta9
#
DISCID=1602eb03
DTITLE=KAN - 死ぬまで君を離さない
DYEAR=1992
DGENRE=J-POP
TTITLE0=死ぬまで君を離さない
TTITLE1=KANのChristmas Song
TTITLE2=死ぬまで君を離さない　カラオケ
EXTD=YEAR: 1992
EXTT0=
EXTT1=
EXTT2=
PLAYORDER=
